# Blender v2.78 (sub 0) OBJ File: 'bore.blend'
# www.blender.org
mtllib bore.mtl
o BoreBase
v 0.091250 0.437500 0.562500
v 0.091250 0.562500 0.562500
v 0.091250 0.437500 0.437500
v 0.091250 0.562500 0.437500
v 0.903750 0.437500 0.562500
v 0.903750 0.562500 0.562500
v 0.903750 0.437500 0.437500
v 0.903750 0.562500 0.437500
v 0.873750 0.000000 0.873750
v 0.873750 0.000000 0.126250
v 0.873750 0.125000 0.873750
v 0.873750 0.125000 0.126250
v 0.126250 0.000000 0.873750
v 0.126250 0.000000 0.126250
v 0.126250 0.125000 0.873750
v 0.126250 0.125000 0.126250
v 0.188750 0.125000 0.343750
v 0.188750 0.125000 0.656250
v 0.811250 0.125000 0.656250
v 0.811250 0.125000 0.343750
v 0.873750 0.125000 0.656250
v 0.873750 0.125000 0.343750
v 0.126250 0.125000 0.343750
v 0.126250 0.125000 0.656250
v 0.811250 0.625000 0.656250
v 0.811250 0.625000 0.343750
v 0.873750 0.625000 0.656250
v 0.873750 0.625000 0.343750
v 0.188750 0.625000 0.343750
v 0.188750 0.625000 0.656250
v 0.126250 0.625000 0.343750
v 0.126250 0.625000 0.656250
vt 0.4688 0.3750
vt 0.4688 0.3125
vt 0.5312 0.3125
vt 0.5312 0.3750
vt 0.9375 0.3125
vt 0.9375 0.3750
vt 1.0000 0.3125
vt 1.0000 0.3750
vt 0.9375 0.4375
vt 0.9375 0.5000
vt 0.5312 0.5000
vt 0.5312 0.4375
vt 0.9375 0.5625
vt 0.5312 0.5625
vt 0.3750 0.9375
vt 0.3750 0.5625
vt 0.4375 0.5625
vt 0.4375 0.9375
vt 0.8750 0.5625
vt 0.8750 0.9375
vt 0.8125 0.9375
vt 0.8125 0.5625
vt 0.8125 0.2500
vt 0.8125 0.2812
vt 0.6562 0.2812
vt 0.6562 0.2500
vt 0.3750 1.0000
vt 0.0000 1.0000
vt 0.0000 0.9375
vt 0.3438 0.2500
vt 0.3438 0.2812
vt 0.1875 0.2812
vt 0.1875 0.2500
vt -0.0000 0.5000
vt 0.3750 0.5000
vt -0.0000 0.5625
vt 0.1562 -0.0000
vt 0.1562 0.2500
vt -0.0000 0.2500
vt -0.0000 -0.0000
vt 0.3438 -0.0000
vt 0.3750 -0.0000
vt 0.3750 0.2500
vt 0.1875 0.0000
vt 1.0000 -0.0000
vt 1.0000 0.2500
vt 0.8438 0.2500
vt 0.8438 -0.0000
vt 0.6250 0.0000
vt 0.6562 -0.0000
vt 0.6250 0.2500
vt 0.8125 -0.0000
vn -1.0000 0.0000 0.0000
vn 0.0000 0.0000 -1.0000
vn 1.0000 0.0000 0.0000
vn 0.0000 0.0000 1.0000
vn 0.0000 -1.0000 0.0000
vn 0.0000 1.0000 0.0000
usemtl Material
s off
f 1/1/1 2/2/1 4/3/1 3/4/1
f 3/4/2 4/3/2 8/5/2 7/6/2
f 7/6/3 8/5/3 6/7/3 5/8/3
f 5/9/4 6/10/4 2/11/4 1/12/4
f 3/4/5 7/6/5 5/9/5 1/12/5
f 8/13/6 4/14/6 2/11/6 6/10/6
f 16/15/2 12/16/2 10/17/2 14/18/2
f 11/19/4 15/20/4 13/21/4 9/22/4
f 32/23/6 30/24/6 29/25/6 31/26/6
f 16/15/1 14/27/1 13/28/1 15/29/1
f 10/17/5 9/22/5 13/21/5 14/18/5
f 28/30/6 26/31/6 25/32/6 27/33/6
f 9/34/3 10/35/3 12/16/3 11/36/3
f 16/15/6 15/29/6 11/36/6 12/16/6
f 19/37/1 25/38/1 26/39/1 20/40/1
f 22/41/2 20/42/2 26/43/2 28/30/2
f 21/44/3 22/41/3 28/30/3 27/33/3
f 19/37/4 21/44/4 27/33/4 25/38/4
f 17/45/3 29/46/3 30/47/3 18/48/3
f 17/49/2 23/50/2 31/26/2 29/51/2
f 23/50/1 24/52/1 32/23/1 31/26/1
f 24/52/4 18/48/4 30/47/4 32/23/4
o BoreCore
v 0.750000 0.312500 0.250000
v 0.750000 0.312500 0.750000
v 0.250000 0.312500 0.750000
v 0.250000 0.312500 0.250000
v 0.750000 0.750000 0.250000
v 0.750000 0.750000 0.750000
v 0.250000 0.750000 0.750000
v 0.250000 0.750000 0.250000
v 0.375000 0.875000 0.375000
v 0.375000 0.875000 0.625000
v 0.625000 0.875000 0.625000
v 0.625000 0.875000 0.375000
v 0.375000 1.000000 0.375000
v 0.375000 1.000000 0.625000
v 0.625000 1.000000 0.625000
v 0.625000 1.000000 0.375000
v 0.687500 0.312500 0.312500
v 0.687500 0.312500 0.687500
v 0.312500 0.312500 0.312500
v 0.312500 0.312500 0.687500
v 0.687500 0.187500 0.312500
v 0.687500 0.187500 0.687500
v 0.312500 0.187500 0.312500
v 0.312500 0.187500 0.687500
v 0.312500 0.875000 0.312500
v 0.312500 0.875000 0.687500
v 0.687500 0.875000 0.687500
v 0.687500 0.875000 0.312500
v 0.312500 0.750000 0.312500
v 0.312500 0.750000 0.687500
v 0.687500 0.750000 0.687500
v 0.687500 0.750000 0.312500
vt 0.8750 0.7812
vt 0.6562 0.7812
vt 0.6562 0.5625
vt 0.8750 0.5625
vt 0.6562 0.3438
vt 0.4375 0.5625
vt 0.4375 0.3438
vt 0.2188 0.5625
vt 0.4375 0.7812
vt 0.2188 0.7812
vt 0.6562 1.0000
vt 0.4375 1.0000
vt -0.0000 0.5000
vt -0.0000 0.3750
vt 0.0625 0.3750
vt 0.0625 0.5000
vt 0.2500 0.3750
vt 0.2500 0.5000
vt 0.1875 0.5000
vt 0.1875 0.3750
vt 0.0625 0.3125
vt 0.1875 0.3125
vt 0.1875 0.5625
vt 0.0625 0.5625
vt 0.7500 -0.0000
vt 0.9375 0.0000
vt 0.9375 0.0625
vt 0.7500 0.0625
vt -0.0000 0.7812
vt -0.0000 0.5625
vt 0.7500 0.2500
vt 0.9375 0.2500
vt 0.6875 0.2500
vt 0.6875 0.0625
vt 1.0000 0.0625
vt 1.0000 0.2500
vt 0.9375 0.3125
vt 0.7500 0.3125
vt 0.0625 0.0625
vt 0.2500 0.0625
vt 0.2500 0.2500
vt 0.0625 0.2500
vt 0.2500 0.3125
vt 0.0625 0.3125
vt 0.3125 0.0625
vt 0.3125 0.2500
vt 0.0625 0.0000
vt 0.2500 -0.0000
vt -0.0000 0.2500
vt 0.0000 0.0625
vn 1.0000 -0.0000 0.0000
vn -0.0000 -0.0000 1.0000
vn -1.0000 -0.0000 -0.0000
vn 0.0000 0.0000 -1.0000
vn 0.0000 1.0000 0.0000
vn 0.0000 -1.0000 -0.0000
usemtl Material_bore_core
s off
f 33/53/7 37/54/7 38/55/7 34/56/7
f 34/57/8 38/55/8 39/58/8 35/59/8
f 35/60/9 39/58/9 40/61/9 36/62/9
f 37/54/10 33/63/10 36/64/10 40/61/10
f 37/54/11 40/61/11 39/58/11 38/55/11
f 41/65/9 42/66/9 46/67/9 45/68/9
f 43/69/7 44/70/7 48/71/7 47/72/7
f 42/73/8 43/74/8 47/72/8 46/67/8
f 44/75/10 41/76/10 45/68/10 48/71/10
f 46/67/11 47/72/11 48/71/11 45/68/11
f 50/77/8 52/78/8 56/79/8 54/80/8
f 33/81/12 34/82/12 35/60/12 36/62/12
f 53/83/12 54/80/12 56/79/12 55/84/12
f 49/85/7 50/86/7 54/80/7 53/83/7
f 52/87/9 51/88/9 55/84/9 56/79/9
f 51/89/10 49/90/10 53/83/10 55/84/10
f 58/91/11 59/92/11 60/93/11 57/94/11
f 57/94/10 60/93/10 64/95/10 61/96/10
f 60/93/7 59/92/7 63/97/7 64/98/7
f 59/92/8 58/91/8 62/99/8 63/100/8
f 58/91/9 57/94/9 61/101/9 62/102/9
o RingBack.001
v 0.312500 1.343750 0.687500
v 0.687500 1.343750 0.687500
v 0.312500 1.343750 0.312500
v 0.687500 1.343750 0.312500
v 0.312500 1.406250 0.687500
v 0.687500 1.406250 0.687500
v 0.312500 1.406250 0.312500
v 0.687500 1.406250 0.312500
v 0.359375 1.406250 0.640625
v 0.640625 1.406250 0.640625
v 0.359375 1.406250 0.359375
v 0.640625 1.406250 0.359375
v 0.359375 1.343750 0.640625
v 0.640625 1.343750 0.640625
v 0.359375 1.343750 0.359375
v 0.640625 1.343750 0.359375
vt 0.5000 0.9375
vt 0.4375 0.9375
vt 0.4375 0.5625
vt 0.5000 0.5625
vt 0.0625 0.5625
vt 0.3750 0.6250
vt 0.1250 0.6250
vt -0.0000 0.5625
vt 0.0625 0.9375
vt 0.0000 0.9375
vt 0.4375 1.0000
vt 0.0625 1.0000
vt 0.0625 0.5000
vt 0.4375 0.5000
vt 0.3750 0.8750
vt 0.1250 0.8750
vt 0.8750 0.9375
vt 0.5000 0.9375
vt 0.5625 0.8750
vt 0.8125 0.8750
vt 0.8750 0.5625
vt 0.8125 0.6250
vt 0.5000 0.5625
vt 0.5625 0.6250
vt 0.0000 0.4375
vt 0.0000 0.3750
vt 0.2500 0.3750
vt 0.2500 0.4375
vt 0.5000 0.4375
vt 0.5000 0.5000
vt 0.2500 0.5000
vt 0.2500 0.4375
vt 0.5000 0.3750
vt 0.0000 0.5000
vn 1.0000 0.0000 0.0000
vn 0.0000 1.0000 0.0000
vn -1.0000 0.0000 0.0000
vn 0.0000 0.0000 -1.0000
vn 0.0000 0.0000 1.0000
vn 0.0000 -1.0000 0.0000
usemtl Material_ring_center
s off
f 68/103/13 72/104/13 70/105/13 66/106/13
f 69/107/14 70/105/14 74/108/14 73/109/14
f 65/110/15 69/107/15 71/111/15 67/112/15
f 68/113/16 67/114/16 71/111/16 72/104/16
f 65/115/17 66/116/17 70/105/17 69/107/17
f 70/105/14 72/104/14 76/117/14 74/108/14
f 71/111/14 69/107/14 73/109/14 75/118/14
f 72/104/14 71/111/14 75/118/14 76/117/14
f 66/119/18 65/120/18 77/121/18 78/122/18
f 68/123/18 66/119/18 78/122/18 80/124/18
f 67/125/18 68/123/18 80/124/18 79/126/18
f 65/120/18 67/125/18 79/126/18 77/121/18
f 73/127/13 77/128/13 79/129/13 75/130/13
f 76/131/15 80/132/15 78/133/15 74/134/15
f 75/130/17 79/129/17 80/135/17 76/131/17
f 74/134/16 78/133/16 77/136/16 73/127/16
o RingBack
v 0.312500 1.125000 0.687500
v 0.687500 1.125000 0.687500
v 0.312500 1.125000 0.312500
v 0.687500 1.125000 0.312500
v 0.312500 1.187500 0.687500
v 0.687500 1.187500 0.687500
v 0.312500 1.187500 0.312500
v 0.687500 1.187500 0.312500
v 0.359375 1.187500 0.640625
v 0.640625 1.187500 0.640625
v 0.359375 1.187500 0.359375
v 0.640625 1.187500 0.359375
v 0.359375 1.125000 0.640625
v 0.640625 1.125000 0.640625
v 0.359375 1.125000 0.359375
v 0.640625 1.125000 0.359375
vt 0.5000 0.9375
vt 0.4375 0.9375
vt 0.4375 0.5625
vt 0.5000 0.5625
vt 0.0625 0.5625
vt 0.3750 0.6250
vt 0.1250 0.6250
vt -0.0000 0.5625
vt 0.0625 0.9375
vt 0.0000 0.9375
vt 0.4375 1.0000
vt 0.0625 1.0000
vt 0.0625 0.5000
vt 0.4375 0.5000
vt 0.3750 0.8750
vt 0.1250 0.8750
vt 0.8750 0.9375
vt 0.5000 0.9375
vt 0.5625 0.8750
vt 0.8125 0.8750
vt 0.8750 0.5625
vt 0.8125 0.6250
vt 0.5000 0.5625
vt 0.5625 0.6250
vt 0.0000 0.4375
vt 0.0000 0.3750
vt 0.2500 0.3750
vt 0.2500 0.4375
vt 0.5000 0.4375
vt 0.5000 0.5000
vt 0.2500 0.5000
vt 0.2500 0.4375
vt 0.5000 0.3750
vt 0.0000 0.5000
vn 1.0000 0.0000 0.0000
vn 0.0000 1.0000 0.0000
vn -1.0000 0.0000 0.0000
vn 0.0000 0.0000 -1.0000
vn 0.0000 0.0000 1.0000
vn 0.0000 -1.0000 0.0000
usemtl Material_ring_back
s off
f 84/137/19 88/138/19 86/139/19 82/140/19
f 85/141/20 86/139/20 90/142/20 89/143/20
f 81/144/21 85/141/21 87/145/21 83/146/21
f 84/147/22 83/148/22 87/145/22 88/138/22
f 81/149/23 82/150/23 86/139/23 85/141/23
f 86/139/20 88/138/20 92/151/20 90/142/20
f 87/145/20 85/141/20 89/143/20 91/152/20
f 88/138/20 87/145/20 91/152/20 92/151/20
f 82/153/24 81/154/24 93/155/24 94/156/24
f 84/157/24 82/153/24 94/156/24 96/158/24
f 83/159/24 84/157/24 96/158/24 95/160/24
f 81/154/24 83/159/24 95/160/24 93/155/24
f 89/161/19 93/162/19 95/163/19 91/164/19
f 92/165/21 96/166/21 94/167/21 90/168/21
f 91/164/23 95/163/23 96/169/23 92/165/23
f 90/168/22 94/167/22 93/170/22 89/161/22
o RingFront
v 0.312500 1.562500 0.687500
v 0.687500 1.562500 0.687500
v 0.312500 1.562500 0.312500
v 0.687500 1.562500 0.312500
v 0.312500 1.625000 0.687500
v 0.687500 1.625000 0.687500
v 0.312500 1.625000 0.312500
v 0.687500 1.625000 0.312500
v 0.359375 1.625000 0.640625
v 0.640625 1.625000 0.640625
v 0.359375 1.625000 0.359375
v 0.640625 1.625000 0.359375
v 0.359375 1.562500 0.640625
v 0.640625 1.562500 0.640625
v 0.359375 1.562500 0.359375
v 0.640625 1.562500 0.359375
vt 0.5000 0.9375
vt 0.4375 0.9375
vt 0.4375 0.5625
vt 0.5000 0.5625
vt 0.0625 0.5625
vt 0.3750 0.6250
vt 0.1250 0.6250
vt -0.0000 0.5625
vt 0.0625 0.9375
vt 0.0000 0.9375
vt 0.4375 1.0000
vt 0.0625 1.0000
vt 0.0625 0.5000
vt 0.4375 0.5000
vt 0.3750 0.8750
vt 0.1250 0.8750
vt 0.8750 0.9375
vt 0.5000 0.9375
vt 0.5625 0.8750
vt 0.8125 0.8750
vt 0.8750 0.5625
vt 0.8125 0.6250
vt 0.5000 0.5625
vt 0.5625 0.6250
vt 0.0000 0.4375
vt 0.0000 0.3750
vt 0.2500 0.3750
vt 0.2500 0.4375
vt 0.5000 0.4375
vt 0.5000 0.5000
vt 0.2500 0.5000
vt 0.2500 0.4375
vt 0.5000 0.3750
vt 0.0000 0.5000
vn 1.0000 0.0000 0.0000
vn 0.0000 1.0000 0.0000
vn -1.0000 0.0000 0.0000
vn 0.0000 0.0000 -1.0000
vn 0.0000 0.0000 1.0000
vn 0.0000 -1.0000 0.0000
usemtl Material_ring_front
s off
f 100/171/25 104/172/25 102/173/25 98/174/25
f 101/175/26 102/173/26 106/176/26 105/177/26
f 97/178/27 101/175/27 103/179/27 99/180/27
f 100/181/28 99/182/28 103/179/28 104/172/28
f 97/183/29 98/184/29 102/173/29 101/175/29
f 102/173/26 104/172/26 108/185/26 106/176/26
f 103/179/26 101/175/26 105/177/26 107/186/26
f 104/172/26 103/179/26 107/186/26 108/185/26
f 98/187/30 97/188/30 109/189/30 110/190/30
f 100/191/30 98/187/30 110/190/30 112/192/30
f 99/193/30 100/191/30 112/192/30 111/194/30
f 97/188/30 99/193/30 111/194/30 109/189/30
f 105/195/25 109/196/25 111/197/25 107/198/25
f 108/199/27 112/200/27 110/201/27 106/202/27
f 107/198/29 111/197/29 112/203/29 108/199/29
f 106/202/28 110/201/28 109/204/28 105/195/28
o FocusCrystal
v 0.625000 1.750000 0.375000
v 0.625000 1.750000 0.625000
v 0.375000 1.750000 0.625000
v 0.375000 1.750000 0.375000
v 0.625000 2.000000 0.375000
v 0.625000 2.000000 0.625000
v 0.375000 2.000000 0.625000
v 0.375000 2.000000 0.375000
vt 0.0001 0.7500
vt 0.0001 0.5000
vt 0.2500 0.5000
vt 0.2500 0.7500
vt 0.5000 0.5000
vt 0.5000 0.7500
vt 0.2500 0.2500
vt 0.5000 0.2500
vt 0.5000 0.9999
vt 0.2500 0.9999
vt 0.7500 0.5000
vt 0.7500 0.7500
vt 0.2500 0.0001
vt 0.5000 0.0001
vn -0.0000 0.0000 1.0000
vn 0.0000 1.0000 0.0000
vn 1.0000 0.0000 0.0000
vn -1.0000 0.0000 -0.0000
vn 0.0000 0.0000 -1.0000
vn 0.0000 -1.0000 -0.0000
usemtl Material_focus_crystal
s off
f 115/205/31 114/206/31 118/207/31 119/208/31
f 117/209/32 120/210/32 119/208/32 118/207/32
f 114/211/33 113/212/33 117/209/33 118/207/33
f 116/213/34 115/214/34 119/208/34 120/210/34
f 113/215/35 116/216/35 120/210/35 117/209/35
f 113/212/36 114/211/36 115/217/36 116/218/36
